# xmcd
#
# Track frame offsets:
#	150
#	4210
#	23917
#	48437
#	77665
#	119032
#	146662
#	171217
#	182145
#	183712
#	215425
#	260300
#	294550
#
# Disc length: 4211 seconds
#
# Revision: 0
# Processed by: cddbd v1.4PL0 Copyright (c) Steve Scherf et al.
# Submitted via: EasyCDDAExtractor 4.6.0.1
#
DISCID=c110710d
DTITLE=Charlie Parker - Boston 1952
DYEAR=1900
DGENRE=Blues
TTITLE0=Introduction
TTITLE1=Ornithology
TTITLE2=Cool Blues
TTITLE3=Groovin' High
TTITLE4=Don't Blame me
TTITLE5=Scrapple from the apple
TTITLE6=Cheryl
TTITLE7=Jumpin with Symphony Sid
TTITLE8=Introduction
TTITLE9=Ornithology
TTITLE10=Out of Nowhere
TTITLE11=Cool Blues
TTITLE12=Scrapple from the Apple
EXTD=
EXTT0=
EXTT1=
EXTT2=
EXTT3=
EXTT4=
EXTT5=
EXTT6=
EXTT7=
EXTT8=
EXTT9=
EXTT10=
EXTT11=
EXTT12=
PLAYORDER=
